<svg width="500" height="182" viewBox="0 0 500 182" fill="none" xmlns="http://www.w3.org/2000/svg">
<g clip-path="url(#clip0_539_639)">
<path d="M121.925 121.086C121.925 132.777 118.453 144.206 111.948 153.927C105.443 163.648 96.1978 171.225 85.3809 175.699C74.5639 180.173 62.6613 181.344 51.1781 179.063C39.6948 176.782 29.1468 171.152 20.8679 162.885C12.589 154.618 6.95094 144.085 4.66679 132.618C2.38264 121.151 3.55495 109.266 8.03547 98.4642C12.516 87.6628 20.1035 78.4306 29.8385 71.9352C39.5735 65.4398 51.0187 61.9729 62.7269 61.9729C70.5014 61.9708 78.2002 63.4984 85.3833 66.4684C92.5665 69.4383 99.0932 73.7925 104.591 79.282C110.088 84.7716 114.448 91.289 117.423 98.4618C120.397 105.635 121.927 113.322 121.925 121.086Z" fill="white"/>
<path d="M16.3466 140.158C16.3466 140.158 58.4701 174.921 104.85 142.86L101.685 140.158L99.3593 135.513L100.736 132.21L101.052 126.806L101.622 122.066L99.9448 118.163L98.9479 112.49L97.5237 108.176L94.9444 104.605L95.8939 101.54L99.6916 97.5735L102.239 95.3455L106.021 92.1852L111.449 91.2845L110.484 87.4606L104.85 82.1671L95.8622 73.7292L84.5797 65.6231L80.1173 64.675L70.433 69.9685L68.5658 76.5261L66.4612 81.3771L73.5345 117.009L75.7024 128.402L63.7711 142.386L59.9101 138.752L50.8904 127.991L58.0428 81.8195L54.6407 72.8759L50.8271 67.1559L40.2725 64.9911L32.6928 68.42L22.8186 75.1039L14.5427 83.2416L12.5488 86.5915L18.0872 88.5825L22.7395 93.4335L25.0498 98.3477L28.088 103.088L25.7777 106.77L22.154 114.939L20.3975 122.034L20.0811 127.438L19.9228 131.578L18.0556 136.492L16.3466 140.158Z" fill="#EE7203"/>
<path d="M14.241 86.639L14.7316 86.7654C15.6652 85.6277 16.6463 84.5058 17.7223 83.4313L16.4564 82.1514C15.0248 83.5981 13.6926 85.1396 12.4688 86.7654C13.0432 86.5948 13.6481 86.5517 14.241 86.639Z" fill="#272728"/>
<path d="M10.7285 87.8082L11.3298 88.3929C11.6938 87.8556 12.0577 87.3026 12.4533 86.8127C11.8025 86.9916 11.2086 87.3343 10.7285 87.8082Z" fill="#272728"/>
<path d="M13.4661 88.4876C13.8934 87.9188 14.2731 87.3499 14.7162 86.7969L14.2415 86.6389C13.6486 86.5516 13.0437 86.5948 12.4692 86.7653C12.0736 87.3025 11.7097 87.8556 11.3457 88.3454L12.0103 89.0249C12.4118 88.6712 12.9308 88.4797 13.4661 88.4876Z" fill="#272728"/>
<path d="M61.5077 59.1919C49.3457 59.1919 37.4569 62.7932 27.3446 69.5403C17.2322 76.2875 9.35065 85.8775 4.69646 97.0976C0.0422684 108.318 -1.17548 120.664 1.19721 132.575C3.56989 144.487 9.42645 155.428 18.0263 164.015C26.6261 172.603 37.5829 178.451 49.5112 180.82C61.4395 183.189 73.8035 181.973 85.0397 177.326C96.2759 172.678 105.88 164.808 112.637 154.71C119.393 144.612 123 132.741 123 120.596C122.979 104.317 116.494 88.7108 104.966 77.1998C93.4386 65.6889 77.81 59.2128 61.5077 59.1919ZM19.3209 132.178C18.6722 134.027 16.0612 139.652 12.216 140.474C10.7064 140.708 9.16474 140.351 7.91183 139.479C4.9279 131.073 3.97316 122.082 5.12527 113.238C6.27738 104.394 9.5038 95.9464 14.5421 88.5824C18.5139 89.8465 23.9415 97.8736 26.774 102.677C21.0699 111.408 18.447 121.79 19.3209 132.178ZM61.5077 177.386C50.1899 177.375 39.1319 173.998 29.744 167.686C20.3562 161.373 13.0642 152.412 8.79798 141.944C9.56335 142.226 10.3715 142.376 11.1874 142.386C12.2472 142.391 13.2934 142.148 14.2414 141.675C18.1974 139.779 20.6818 134.233 21.1407 132.463C21.1696 132.29 21.1696 132.114 21.1407 131.941L21.0299 131.451C20.3635 121.968 22.7294 112.518 27.7868 104.463C27.7868 104.463 27.7868 104.573 27.8817 104.637L28.483 105.869L37.8508 94.8082L36.4742 93.6547L29.3217 102.061L28.8153 102.661L27.8501 101.081C25.3182 96.7043 20.1913 89.0091 15.6181 87.0813C21.0815 79.6044 28.294 73.576 36.6264 69.522C44.9589 65.4679 54.1582 63.5114 63.4218 63.8231C72.6855 64.1347 81.732 66.7051 89.7723 71.31C97.8126 75.9149 104.602 82.4144 109.549 90.2416C103.014 91.6795 97.1592 98.4899 94.3584 102.282C93.947 102.851 93.583 103.357 93.314 103.752L92.7285 103.056L85.2596 93.9865L83.8671 95.14L93.4722 106.786L94.1368 105.743C94.1769 105.696 94.2089 105.642 94.2318 105.585C98.1878 112.648 101.922 122.966 99.3588 134.707V134.849V135.023C99.3588 135.339 100.546 143.034 105.847 145.041C106.678 145.366 107.565 145.527 108.458 145.515C110.109 145.478 111.731 145.073 113.205 144.33C108.648 154.194 101.358 162.548 92.1967 168.406C83.0355 174.264 72.3862 177.38 61.5077 177.386ZM106.495 143.366C102.539 141.88 101.337 135.939 101.147 134.912C103.869 122.382 99.5645 111.21 95.3711 103.957C97.9188 100.433 104.106 92.8962 110.546 91.8849C114.94 99.3428 117.565 107.707 118.217 116.335C118.87 124.964 117.534 133.627 114.312 141.659C111.243 143.587 108.616 144.172 106.495 143.366Z" fill="#272728"/>
<path d="M63.3744 145.199L49.291 128.481L57.0606 81.0767L51.4114 68.2776L73.122 69.3837L68.0425 81.5349L77.3786 128.37L63.3744 145.199ZM52.4875 127.612L63.2953 140.521L74.0872 127.548L64.9093 81.2347L68.7387 71.3272L56.0795 71.5801L60.1305 80.7449L52.4875 127.612Z" fill="#272728"/>
<path d="M95.8623 36.1378C95.8623 42.832 93.8744 49.3758 90.15 54.9419C86.4255 60.5079 81.1319 64.8461 74.9384 67.4079C68.7449 69.9696 61.9297 70.6399 55.3547 69.3339C48.7797 68.0279 42.7402 64.8044 37.9999 60.0709C33.2596 55.3373 30.0314 49.3065 28.7236 42.7409C27.4157 36.1753 28.087 29.3699 30.6524 23.1853C33.2178 17.0006 37.5622 11.7145 43.1362 7.99542C48.7102 4.27632 55.2635 2.29126 61.9673 2.29126C66.4185 2.29126 70.826 3.16673 74.9384 4.86767C79.0507 6.56862 82.7873 9.06173 85.9347 12.2047C89.0821 15.3476 91.5788 19.0788 93.2822 23.1853C94.9856 27.2917 95.8623 31.693 95.8623 36.1378Z" fill="white"/>
<path d="M61.9659 5.52688e-05C54.8018 -0.0124508 47.795 2.09768 41.8324 6.06337C35.8698 10.0291 31.2195 15.672 28.4699 22.278C25.7204 28.884 24.9953 36.1561 26.3864 43.1737C27.7775 50.1914 31.2223 56.6392 36.2848 61.7011C41.3472 66.763 47.7998 70.2113 54.8257 71.6096C61.8516 73.0079 69.135 72.2934 75.7541 69.5565C82.3732 66.8196 88.0303 62.1833 92.0095 56.2344C95.9887 50.2856 98.1111 43.2916 98.1079 36.1378C98.0954 26.5655 94.2851 17.3882 87.5112 10.6151C80.7373 3.84204 71.5519 0.0251273 61.9659 5.52688e-05ZM61.9659 67.6773C55.7065 67.6773 49.5877 65.8238 44.3832 62.3512C39.1787 58.8787 35.1223 53.943 32.7269 48.1684C30.3316 42.3937 29.7049 36.0395 30.926 29.9092C32.1471 23.7788 35.1613 18.1478 39.5874 13.7281C44.0134 9.30834 49.6526 6.29847 55.7917 5.07908C61.9308 3.85968 68.2941 4.48552 74.0771 6.87745C79.86 9.26939 84.8027 13.32 88.2803 18.517C91.7578 23.7141 93.6139 29.8241 93.6139 36.0745C93.6139 40.2247 92.7953 44.3342 91.2049 48.1684C89.6144 52.0026 87.2832 55.4865 84.3444 58.421C81.4056 61.3556 77.9168 63.6835 74.0771 65.2716C70.2374 66.8598 66.122 67.6773 61.9659 67.6773Z" fill="#272728"/>
<path d="M50.8273 31.7449C50.073 31.7449 49.3357 31.9682 48.7085 32.3867C48.0814 32.8051 47.5926 33.3998 47.304 34.0957C47.0153 34.7915 46.9398 35.5572 47.087 36.2959C47.2341 37.0346 47.5973 37.7132 48.1306 38.2458C48.664 38.7783 49.3435 39.141 50.0833 39.288C50.823 39.4349 51.5898 39.3595 52.2867 39.0712C52.9835 38.783 53.5791 38.2949 53.9981 37.6687C54.4172 37.0424 54.6408 36.3062 54.6408 35.553C54.6367 34.5443 54.2336 33.5781 53.5193 32.8648C52.805 32.1516 51.8374 31.749 50.8273 31.7449Z" fill="#272728"/>
<path d="M67.7901 31.7766C67.0352 31.7767 66.2972 32.0004 65.6698 32.4195C65.0423 32.8387 64.5535 33.4344 64.2653 34.1311C63.9772 34.8279 63.9026 35.5944 64.051 36.3335C64.1994 37.0727 64.5642 37.7512 65.0991 38.2831C65.6341 38.8151 66.3151 39.1765 67.0559 39.3216C67.7967 39.4668 68.564 39.3891 69.2605 39.0985C69.9571 38.8078 70.5516 38.3173 70.9687 37.6889C71.3858 37.0606 71.6068 36.3228 71.6037 35.569C71.6037 35.0696 71.505 34.5752 71.3131 34.1141C71.1213 33.6529 70.8401 33.2341 70.4858 32.8818C70.1314 32.5294 69.7109 32.2504 69.2483 32.0608C68.7857 31.8711 68.2902 31.7746 67.7901 31.7766Z" fill="#272728"/>
</g>
<path d="M171.072 115.96C166.528 115.96 162.4 114.904 158.688 112.792C155.04 110.68 152.16 107.8 150.048 104.152C147.936 100.504 146.88 96.44 146.88 91.96C146.88 87.416 147.936 83.352 150.048 79.768C152.16 76.12 155.04 73.24 158.688 71.128C162.4 69.016 166.528 67.96 171.072 67.96C174.656 67.96 177.984 68.664 181.056 70.072C184.192 71.416 186.848 73.368 189.024 75.928L182.112 82.936C180.768 81.336 179.136 80.152 177.216 79.384C175.36 78.552 173.312 78.136 171.072 78.136C168.448 78.136 166.112 78.744 164.064 79.96C162.08 81.112 160.512 82.712 159.36 84.76C158.272 86.808 157.728 89.208 157.728 91.96C157.728 94.648 158.272 97.048 159.36 99.16C160.512 101.208 162.08 102.84 164.064 104.056C166.112 105.208 168.448 105.784 171.072 105.784C173.312 105.784 175.36 105.4 177.216 104.632C179.136 103.8 180.768 102.584 182.112 100.984L189.024 107.992C186.848 110.552 184.192 112.536 181.056 113.944C177.984 115.288 174.656 115.96 171.072 115.96ZM212.98 115.96C208.5 115.96 204.436 114.904 200.788 112.792C197.14 110.616 194.228 107.704 192.052 104.056C189.94 100.408 188.884 96.344 188.884 91.864C188.884 87.384 189.94 83.352 192.052 79.768C194.228 76.184 197.14 73.336 200.788 71.224C204.436 69.048 208.5 67.96 212.98 67.96C217.524 67.96 221.62 69.016 225.268 71.128C228.916 73.24 231.796 76.12 233.908 79.768C236.084 83.352 237.172 87.384 237.172 91.864C237.172 96.344 236.084 100.408 233.908 104.056C231.796 107.704 228.916 110.616 225.268 112.792C221.62 114.904 217.524 115.96 212.98 115.96ZM212.98 105.784C215.604 105.784 217.908 105.208 219.892 104.056C221.94 102.84 223.508 101.176 224.596 99.064C225.748 96.952 226.324 94.552 226.324 91.864C226.324 89.176 225.748 86.808 224.596 84.76C223.444 82.712 221.876 81.112 219.892 79.96C217.908 78.744 215.604 78.136 212.98 78.136C210.42 78.136 208.116 78.744 206.068 79.96C204.084 81.112 202.516 82.712 201.364 84.76C200.276 86.808 199.732 89.176 199.732 91.864C199.732 94.552 200.276 96.952 201.364 99.064C202.516 101.176 204.084 102.84 206.068 104.056C208.116 105.208 210.42 105.784 212.98 105.784ZM261.026 115.96C257.122 115.96 253.634 115.096 250.562 113.368C247.554 111.64 245.186 109.272 243.457 106.264C241.793 103.192 240.961 99.672 240.961 95.704V68.92H251.522V95.224C251.522 97.464 251.874 99.384 252.577 100.984C253.346 102.52 254.434 103.704 255.842 104.536C257.314 105.368 259.042 105.784 261.026 105.784C264.098 105.784 266.434 104.888 268.034 103.096C269.698 101.24 270.53 98.616 270.53 95.224V68.92H281.09V95.704C281.09 99.736 280.226 103.288 278.498 106.36C276.834 109.368 274.498 111.736 271.49 113.464C268.482 115.128 264.994 115.96 261.026 115.96ZM312.539 115.96C309.019 115.96 305.883 115.224 303.131 113.752C300.379 112.216 298.203 110.136 296.603 107.512C295.067 104.888 294.299 101.912 294.299 98.584V85.336C294.299 82.008 295.099 79.032 296.699 76.408C298.299 73.784 300.475 71.736 303.227 70.264C305.979 68.728 309.083 67.96 312.539 67.96C316.699 67.96 320.443 69.048 323.771 71.224C327.163 73.336 329.819 76.216 331.739 79.864C333.723 83.448 334.715 87.512 334.715 92.056C334.715 96.536 333.723 100.6 331.739 104.248C329.819 107.832 327.163 110.68 323.771 112.792C320.443 114.904 316.699 115.96 312.539 115.96ZM287.867 134.2V68.92H298.427V81.304L296.603 92.536L298.427 103.672V134.2H287.867ZM310.811 105.976C313.371 105.976 315.611 105.4 317.531 104.248C319.515 103.032 321.051 101.368 322.139 99.256C323.291 97.144 323.867 94.712 323.867 91.96C323.867 89.208 323.291 86.776 322.139 84.664C321.051 82.552 319.515 80.92 317.531 79.768C315.611 78.552 313.371 77.944 310.811 77.944C308.251 77.944 305.979 78.552 303.995 79.768C302.011 80.92 300.475 82.552 299.387 84.664C298.299 86.776 297.755 89.208 297.755 91.96C297.755 94.712 298.299 97.144 299.387 99.256C300.475 101.368 302.011 103.032 303.995 104.248C305.979 105.4 308.251 105.976 310.811 105.976ZM339.715 115V45.88H350.275V115H339.715ZM358.283 115V68.92H368.843V115H358.283ZM363.563 60.472C361.771 60.472 360.267 59.864 359.051 58.648C357.899 57.432 357.323 55.928 357.323 54.136C357.323 52.344 357.899 50.84 359.051 49.624C360.267 48.408 361.771 47.8 363.563 47.8C365.419 47.8 366.923 48.408 368.075 49.624C369.227 50.84 369.803 52.344 369.803 54.136C369.803 55.928 369.227 57.432 368.075 58.648C366.923 59.864 365.419 60.472 363.563 60.472ZM408.431 115V88.408C408.431 85.336 407.439 82.808 405.455 80.824C403.535 78.84 401.039 77.848 397.967 77.848C395.919 77.848 394.095 78.296 392.495 79.192C390.895 80.088 389.647 81.336 388.751 82.936C387.855 84.536 387.407 86.36 387.407 88.408L383.279 86.104C383.279 82.584 384.047 79.48 385.583 76.792C387.119 74.04 389.231 71.896 391.919 70.36C394.671 68.76 397.743 67.96 401.135 67.96C404.591 67.96 407.663 68.856 410.351 70.648C413.039 72.376 415.151 74.648 416.687 77.464C418.223 80.216 418.991 83.096 418.991 86.104V115H408.431ZM376.847 115V68.92H387.407V115H376.847ZM445.082 135.16C440.218 135.16 435.962 134.264 432.314 132.472C428.666 130.744 425.722 128.28 423.482 125.08L430.394 118.168C432.25 120.472 434.362 122.2 436.73 123.352C439.098 124.504 441.946 125.08 445.274 125.08C449.434 125.08 452.73 123.992 455.162 121.816C457.594 119.704 458.81 116.792 458.81 113.08V101.752L460.634 91.576L458.81 81.304V68.92H469.37V113.08C469.37 117.496 468.346 121.336 466.298 124.6C464.25 127.928 461.402 130.52 457.754 132.376C454.106 134.232 449.882 135.16 445.082 135.16ZM444.602 114.04C440.506 114.04 436.794 113.048 433.466 111.064C430.202 109.016 427.61 106.232 425.69 102.712C423.834 99.192 422.906 95.256 422.906 90.904C422.906 86.552 423.834 82.648 425.69 79.192C427.61 75.736 430.202 73.016 433.466 71.032C436.794 68.984 440.506 67.96 444.602 67.96C448.25 67.96 451.45 68.696 454.202 70.168C456.954 71.64 459.098 73.688 460.634 76.312C462.17 78.872 462.938 81.88 462.938 85.336V96.664C462.938 100.056 462.138 103.064 460.538 105.688C459.002 108.312 456.858 110.36 454.106 111.832C451.354 113.304 448.186 114.04 444.602 114.04ZM446.714 104.056C449.274 104.056 451.514 103.512 453.434 102.424C455.354 101.336 456.826 99.832 457.85 97.912C458.938 95.928 459.482 93.624 459.482 91C459.482 88.376 458.938 86.104 457.85 84.184C456.826 82.2 455.354 80.664 453.434 79.576C451.514 78.488 449.274 77.944 446.714 77.944C444.154 77.944 441.882 78.488 439.898 79.576C437.978 80.664 436.474 82.2 435.386 84.184C434.298 86.104 433.754 88.376 433.754 91C433.754 93.56 434.298 95.832 435.386 97.816C436.474 99.8 437.978 101.336 439.898 102.424C441.882 103.512 444.154 104.056 446.714 104.056ZM485.325 115.96C483.277 115.96 481.581 115.288 480.237 113.944C478.957 112.536 478.317 110.84 478.317 108.856C478.317 106.808 478.957 105.112 480.237 103.768C481.581 102.424 483.277 101.752 485.325 101.752C487.373 101.752 489.037 102.424 490.317 103.768C491.661 105.112 492.333 106.808 492.333 108.856C492.333 110.84 491.661 112.536 490.317 113.944C489.037 115.288 487.373 115.96 485.325 115.96Z" fill="#272728"/>
<path d="M148.8 178V148.24H152.064V178H148.8ZM169.664 178V159.504C169.664 156.816 168.853 154.661 167.232 153.04C165.653 151.419 163.627 150.608 161.152 150.608C159.488 150.608 157.973 150.971 156.608 151.696C155.243 152.421 154.133 153.445 153.28 154.768C152.469 156.091 152.064 157.627 152.064 159.376L150.4 158.992C150.4 156.688 150.891 154.683 151.872 152.976C152.896 151.269 154.261 149.947 155.968 149.008C157.717 148.069 159.659 147.6 161.792 147.6C163.925 147.6 165.824 148.069 167.488 149.008C169.152 149.947 170.475 151.269 171.456 152.976C172.437 154.683 172.928 156.688 172.928 158.992V178H169.664ZM190.528 178V159.504C190.528 156.816 189.717 154.661 188.096 153.04C186.517 151.419 184.491 150.608 182.016 150.608C180.352 150.608 178.816 150.971 177.408 151.696C176.043 152.421 174.955 153.445 174.144 154.768C173.333 156.091 172.928 157.627 172.928 159.376L170.944 158.992C170.987 156.645 171.52 154.64 172.544 152.976C173.611 151.269 175.019 149.947 176.768 149.008C178.517 148.069 180.459 147.6 182.592 147.6C184.725 147.6 186.624 148.069 188.288 149.008C189.952 149.947 191.275 151.291 192.256 153.04C193.28 154.747 193.792 156.752 193.792 159.056V178H190.528ZM216.434 178.64C213.49 178.64 210.823 177.957 208.434 176.592C206.087 175.227 204.231 173.371 202.866 171.024C201.5 168.677 200.818 166.032 200.818 163.088C200.818 160.144 201.479 157.52 202.802 155.216C204.124 152.869 205.938 151.013 208.242 149.648C210.588 148.283 213.191 147.6 216.05 147.6C218.78 147.6 221.17 148.219 223.218 149.456C225.308 150.651 226.93 152.315 228.082 154.448C229.276 156.581 229.874 159.035 229.874 161.808C229.874 162.064 229.852 162.405 229.81 162.832C229.767 163.216 229.703 163.707 229.618 164.304H203.122V161.488H227.762L226.674 162.384C226.759 160.037 226.375 157.989 225.522 156.24C224.668 154.448 223.431 153.061 221.81 152.08C220.188 151.099 218.247 150.608 215.986 150.608C213.639 150.608 211.57 151.141 209.778 152.208C207.986 153.232 206.578 154.661 205.554 156.496C204.572 158.331 204.082 160.464 204.082 162.896C204.082 165.456 204.594 167.696 205.618 169.616C206.684 171.493 208.156 172.965 210.034 174.032C211.911 175.056 214.108 175.568 216.626 175.568C218.546 175.568 220.316 175.227 221.938 174.544C223.602 173.819 224.988 172.752 226.098 171.344L228.274 173.456C226.908 175.077 225.18 176.357 223.09 177.296C221.042 178.192 218.823 178.64 216.434 178.64ZM250.164 178.64C247.348 178.64 244.831 177.957 242.612 176.592C240.393 175.227 238.644 173.392 237.364 171.088C236.084 168.741 235.444 166.096 235.444 163.152C235.444 160.208 236.084 157.563 237.364 155.216C238.644 152.869 240.393 151.013 242.612 149.648C244.831 148.283 247.348 147.6 250.164 147.6C252.34 147.6 254.345 148.027 256.18 148.88C258.057 149.733 259.636 150.971 260.916 152.592C262.196 154.171 263.007 156.048 263.348 158.224V167.952C262.964 170.085 262.153 171.963 260.916 173.584C259.679 175.163 258.121 176.4 256.244 177.296C254.409 178.192 252.383 178.64 250.164 178.64ZM250.74 175.568C253.001 175.568 254.985 175.035 256.692 173.968C258.399 172.901 259.721 171.451 260.66 169.616C261.641 167.739 262.132 165.584 262.132 163.152C262.132 160.677 261.641 158.523 260.66 156.688C259.679 154.811 258.313 153.339 256.564 152.272C254.857 151.205 252.852 150.672 250.548 150.672C248.287 150.672 246.26 151.205 244.468 152.272C242.719 153.339 241.332 154.811 240.308 156.688C239.284 158.523 238.772 160.656 238.772 163.088C238.772 165.52 239.284 167.675 240.308 169.552C241.332 171.429 242.74 172.901 244.532 173.968C246.324 175.035 248.393 175.568 250.74 175.568ZM265.268 178H262.004V170L262.772 162.704L262.004 155.472V133.072H265.268V178ZM274.927 178V148.24H278.127V178H274.927ZM276.527 141.328C275.801 141.328 275.183 141.072 274.671 140.56C274.201 140.005 273.967 139.365 273.967 138.64C273.967 137.915 274.201 137.317 274.671 136.848C275.183 136.336 275.801 136.08 276.527 136.08C277.252 136.08 277.871 136.336 278.383 136.848C278.895 137.317 279.151 137.915 279.151 138.64C279.151 139.365 278.895 140.005 278.383 140.56C277.871 141.072 277.252 141.328 276.527 141.328ZM301.047 178.64C298.188 178.64 295.607 177.957 293.303 176.592C291.041 175.227 289.249 173.392 287.927 171.088C286.604 168.741 285.943 166.096 285.943 163.152C285.943 160.251 286.604 157.627 287.927 155.28C289.249 152.933 291.041 151.077 293.303 149.712C295.564 148.304 298.103 147.6 300.919 147.6C303.223 147.6 305.271 148.048 307.063 148.944C308.897 149.797 310.391 151.013 311.543 152.592C312.737 154.171 313.505 156.048 313.847 158.224V167.952C313.463 170.128 312.673 172.027 311.479 173.648C310.327 175.227 308.855 176.464 307.063 177.36C305.313 178.213 303.308 178.64 301.047 178.64ZM301.495 175.568C304.908 175.568 307.617 174.437 309.623 172.176C311.671 169.872 312.695 166.864 312.695 163.152C312.695 160.635 312.225 158.459 311.287 156.624C310.391 154.747 309.089 153.296 307.383 152.272C305.676 151.205 303.692 150.672 301.431 150.672C299.084 150.672 296.993 151.205 295.159 152.272C293.367 153.339 291.937 154.811 290.871 156.688C289.847 158.565 289.335 160.699 289.335 163.088C289.335 165.52 289.847 167.675 290.871 169.552C291.937 171.429 293.388 172.901 295.223 173.968C297.057 175.035 299.148 175.568 301.495 175.568ZM312.567 178V170L313.271 162.704L312.567 155.472V148.24H315.831V178H312.567Z" fill="#272728"/>
<defs>
<clipPath id="clip0_539_639">
<rect width="123" height="182" fill="white"/>
</clipPath>
</defs>
</svg>
