<svg width="356" height="137" viewBox="0 0 356 137" fill="none" xmlns="http://www.w3.org/2000/svg">
<path d="M27.072 70.0801C22.528 70.0801 18.4 69.0241 14.688 66.9121C11.04 64.8001 8.16 61.9201 6.048 58.2721C3.936 54.6241 2.88 50.5601 2.88 46.0801C2.88 41.5361 3.936 37.4721 6.048 33.8881C8.16 30.2401 11.04 27.3601 14.688 25.2481C18.4 23.1361 22.528 22.0801 27.072 22.0801C30.656 22.0801 33.984 22.7841 37.056 24.1921C40.192 25.5361 42.848 27.4881 45.024 30.0481L38.112 37.0561C36.768 35.4561 35.136 34.2721 33.216 33.5041C31.36 32.6721 29.312 32.2561 27.072 32.2561C24.448 32.2561 22.112 32.8641 20.064 34.0801C18.08 35.2321 16.512 36.8321 15.36 38.8801C14.272 40.9281 13.728 43.3281 13.728 46.0801C13.728 48.7681 14.272 51.1681 15.36 53.2801C16.512 55.3281 18.08 56.9601 20.064 58.1761C22.112 59.3281 24.448 59.9041 27.072 59.9041C29.312 59.9041 31.36 59.5201 33.216 58.7521C35.136 57.9201 36.768 56.7041 38.112 55.1041L45.024 62.1121C42.848 64.6721 40.192 66.6561 37.056 68.0641C33.984 69.4081 30.656 70.0801 27.072 70.0801ZM68.9798 70.0801C64.4998 70.0801 60.4358 69.0241 56.7878 66.9121C53.1398 64.7361 50.2278 61.8241 48.0517 58.1761C45.9397 54.5281 44.8837 50.4641 44.8837 45.9841C44.8837 41.5041 45.9397 37.4721 48.0517 33.8881C50.2278 30.3041 53.1398 27.4561 56.7878 25.3441C60.4358 23.1681 64.4998 22.0801 68.9798 22.0801C73.5238 22.0801 77.6198 23.1361 81.2678 25.2481C84.9158 27.3601 87.7958 30.2401 89.9078 33.8881C92.0838 37.4721 93.1718 41.5041 93.1718 45.9841C93.1718 50.4641 92.0838 54.5281 89.9078 58.1761C87.7958 61.8241 84.9158 64.7361 81.2678 66.9121C77.6198 69.0241 73.5238 70.0801 68.9798 70.0801ZM68.9798 59.9041C71.6038 59.9041 73.9078 59.3281 75.8918 58.1761C77.9398 56.9601 79.5078 55.2961 80.5958 53.1841C81.7478 51.0721 82.3238 48.6721 82.3238 45.9841C82.3238 43.2961 81.7478 40.9281 80.5958 38.8801C79.4438 36.8321 77.8758 35.2321 75.8918 34.0801C73.9078 32.8641 71.6038 32.2561 68.9798 32.2561C66.4198 32.2561 64.1158 32.8641 62.0678 34.0801C60.0838 35.2321 58.5158 36.8321 57.3638 38.8801C56.2758 40.9281 55.7318 43.2961 55.7318 45.9841C55.7318 48.6721 56.2758 51.0721 57.3638 53.1841C58.5158 55.2961 60.0838 56.9601 62.0678 58.1761C64.1158 59.3281 66.4198 59.9041 68.9798 59.9041ZM117.026 70.0801C113.122 70.0801 109.634 69.2161 106.562 67.4881C103.554 65.7601 101.186 63.3921 99.4575 60.3841C97.7935 57.3121 96.9615 53.7921 96.9615 49.8241V23.0401H107.522V49.3441C107.522 51.5841 107.874 53.5041 108.577 55.1041C109.346 56.6401 110.434 57.8241 111.842 58.6561C113.314 59.4881 115.042 59.9041 117.026 59.9041C120.098 59.9041 122.434 59.0081 124.034 57.2161C125.698 55.3601 126.53 52.7361 126.53 49.3441V23.0401H137.09V49.8241C137.09 53.8561 136.226 57.4081 134.498 60.4801C132.834 63.4881 130.498 65.8561 127.49 67.5841C124.482 69.2481 120.994 70.0801 117.026 70.0801ZM168.539 70.0801C165.019 70.0801 161.883 69.3441 159.131 67.8721C156.379 66.3361 154.203 64.2561 152.603 61.6321C151.067 59.0081 150.299 56.0321 150.299 52.7041V39.4561C150.299 36.1281 151.099 33.1521 152.699 30.5281C154.299 27.9041 156.475 25.8561 159.227 24.3841C161.979 22.8481 165.083 22.0801 168.539 22.0801C172.699 22.0801 176.443 23.1681 179.771 25.3441C183.163 27.4561 185.819 30.3361 187.739 33.9841C189.723 37.5681 190.715 41.6321 190.715 46.1761C190.715 50.6561 189.723 54.7201 187.739 58.3681C185.819 61.9521 183.163 64.8001 179.771 66.9121C176.443 69.0241 172.699 70.0801 168.539 70.0801ZM143.867 88.3201V23.0401H154.427V35.4241L152.603 46.6561L154.427 57.7921V88.3201H143.867ZM166.811 60.0961C169.371 60.0961 171.611 59.5201 173.531 58.3681C175.515 57.1521 177.051 55.4881 178.139 53.3761C179.291 51.2641 179.867 48.8321 179.867 46.0801C179.867 43.3281 179.291 40.8961 178.139 38.7841C177.051 36.6721 175.515 35.0401 173.531 33.8881C171.611 32.6721 169.371 32.0641 166.811 32.0641C164.251 32.0641 161.979 32.6721 159.995 33.8881C158.011 35.0401 156.475 36.6721 155.387 38.7841C154.299 40.8961 153.755 43.3281 153.755 46.0801C153.755 48.8321 154.299 51.2641 155.387 53.3761C156.475 55.4881 158.011 57.1521 159.995 58.3681C161.979 59.5201 164.251 60.0961 166.811 60.0961ZM195.715 69.1201V0.000114441H206.275V69.1201H195.715ZM214.283 69.1201V23.0401H224.843V69.1201H214.283ZM219.563 14.5921C217.771 14.5921 216.267 13.9841 215.051 12.7681C213.899 11.5521 213.323 10.0481 213.323 8.25612C213.323 6.46411 213.899 4.96011 215.051 3.74411C216.267 2.52811 217.771 1.92011 219.563 1.92011C221.419 1.92011 222.923 2.52811 224.075 3.74411C225.227 4.96011 225.803 6.46411 225.803 8.25612C225.803 10.0481 225.227 11.5521 224.075 12.7681C222.923 13.9841 221.419 14.5921 219.563 14.5921ZM264.431 69.1201V42.5281C264.431 39.4561 263.439 36.9281 261.455 34.9441C259.535 32.9601 257.039 31.9681 253.967 31.9681C251.919 31.9681 250.095 32.4161 248.495 33.3121C246.895 34.2081 245.647 35.4561 244.751 37.0561C243.855 38.6561 243.407 40.4801 243.407 42.5281L239.279 40.2241C239.279 36.7041 240.047 33.6001 241.583 30.9121C243.119 28.1601 245.231 26.0161 247.919 24.4801C250.671 22.8801 253.743 22.0801 257.135 22.0801C260.591 22.0801 263.663 22.9761 266.351 24.7681C269.039 26.4961 271.151 28.7681 272.687 31.5841C274.223 34.3361 274.991 37.2161 274.991 40.2241V69.1201H264.431ZM232.847 69.1201V23.0401H243.407V69.1201H232.847ZM301.082 89.2801C296.218 89.2801 291.962 88.3841 288.314 86.5921C284.666 84.8641 281.722 82.4001 279.482 79.2001L286.394 72.2881C288.25 74.5921 290.362 76.3201 292.73 77.4721C295.098 78.6241 297.946 79.2001 301.274 79.2001C305.434 79.2001 308.73 78.1121 311.162 75.9361C313.594 73.8241 314.81 70.9121 314.81 67.2001V55.8721L316.634 45.6961L314.81 35.4241V23.0401H325.37V67.2001C325.37 71.6161 324.346 75.4561 322.298 78.7201C320.25 82.0481 317.402 84.6401 313.754 86.4961C310.106 88.3521 305.882 89.2801 301.082 89.2801ZM300.602 68.1601C296.506 68.1601 292.794 67.1681 289.466 65.1841C286.202 63.1361 283.61 60.3521 281.69 56.8321C279.834 53.3121 278.906 49.3761 278.906 45.0241C278.906 40.6721 279.834 36.7681 281.69 33.3121C283.61 29.8561 286.202 27.1361 289.466 25.1521C292.794 23.1041 296.506 22.0801 300.602 22.0801C304.25 22.0801 307.45 22.8161 310.202 24.2881C312.954 25.7601 315.098 27.8081 316.634 30.4321C318.17 32.9921 318.938 36.0001 318.938 39.4561V50.7841C318.938 54.1761 318.138 57.1841 316.538 59.8081C315.002 62.4321 312.858 64.4801 310.106 65.9521C307.354 67.4241 304.186 68.1601 300.602 68.1601ZM302.714 58.1761C305.274 58.1761 307.514 57.6321 309.434 56.5441C311.354 55.4561 312.826 53.9521 313.85 52.0321C314.938 50.0481 315.482 47.7441 315.482 45.1201C315.482 42.4961 314.938 40.2241 313.85 38.3041C312.826 36.3201 311.354 34.7841 309.434 33.6961C307.514 32.6081 305.274 32.0641 302.714 32.0641C300.154 32.0641 297.882 32.6081 295.898 33.6961C293.978 34.7841 292.474 36.3201 291.386 38.3041C290.298 40.2241 289.754 42.4961 289.754 45.1201C289.754 47.6801 290.298 49.9521 291.386 51.9361C292.474 53.9201 293.978 55.4561 295.898 56.5441C297.882 57.6321 300.154 58.1761 302.714 58.1761ZM341.325 70.0801C339.277 70.0801 337.581 69.4081 336.237 68.0641C334.957 66.6561 334.317 64.9601 334.317 62.9761C334.317 60.9281 334.957 59.2321 336.237 57.8881C337.581 56.5441 339.277 55.8721 341.325 55.8721C343.373 55.8721 345.037 56.5441 346.317 57.8881C347.661 59.2321 348.333 60.9281 348.333 62.9761C348.333 64.9601 347.661 66.6561 346.317 68.0641C345.037 69.4081 343.373 70.0801 341.325 70.0801Z" fill="white"/>
<path d="M4.8 132.12V102.36H8.064V132.12H4.8ZM25.664 132.12V113.624C25.664 110.936 24.8533 108.781 23.232 107.16C21.6533 105.539 19.6267 104.728 17.152 104.728C15.488 104.728 13.9733 105.091 12.608 105.816C11.2427 106.541 10.1333 107.565 9.28 108.888C8.46933 110.211 8.064 111.747 8.064 113.496L6.4 113.112C6.4 110.808 6.89067 108.803 7.872 107.096C8.896 105.389 10.2613 104.067 11.968 103.128C13.7173 102.189 15.6587 101.72 17.792 101.72C19.9253 101.72 21.824 102.189 23.488 103.128C25.152 104.067 26.4747 105.389 27.456 107.096C28.4373 108.803 28.928 110.808 28.928 113.112V132.12H25.664ZM46.528 132.12V113.624C46.528 110.936 45.7173 108.781 44.096 107.16C42.5173 105.539 40.4907 104.728 38.016 104.728C36.352 104.728 34.816 105.091 33.408 105.816C32.0427 106.541 30.9547 107.565 30.144 108.888C29.3333 110.211 28.928 111.747 28.928 113.496L26.944 113.112C26.9867 110.765 27.52 108.76 28.544 107.096C29.6107 105.389 31.0187 104.067 32.768 103.128C34.5173 102.189 36.4587 101.72 38.592 101.72C40.7253 101.72 42.624 102.189 44.288 103.128C45.952 104.067 47.2747 105.411 48.256 107.16C49.28 108.867 49.792 110.872 49.792 113.176V132.12H46.528ZM72.4335 132.76C69.4895 132.76 66.8228 132.077 64.4335 130.712C62.0868 129.347 60.2308 127.491 58.8655 125.144C57.5002 122.797 56.8175 120.152 56.8175 117.208C56.8175 114.264 57.4788 111.64 58.8015 109.336C60.1242 106.989 61.9375 105.133 64.2415 103.768C66.5882 102.403 69.1908 101.72 72.0495 101.72C74.7802 101.72 77.1695 102.339 79.2175 103.576C81.3082 104.771 82.9295 106.435 84.0815 108.568C85.2762 110.701 85.8735 113.155 85.8735 115.928C85.8735 116.184 85.8522 116.525 85.8095 116.952C85.7668 117.336 85.7028 117.827 85.6175 118.424H59.1215V115.608H83.7615L82.6735 116.504C82.7588 114.157 82.3748 112.109 81.5215 110.36C80.6682 108.568 79.4308 107.181 77.8095 106.2C76.1882 105.219 74.2468 104.728 71.9855 104.728C69.6388 104.728 67.5695 105.261 65.7775 106.328C63.9855 107.352 62.5775 108.781 61.5535 110.616C60.5722 112.451 60.0815 114.584 60.0815 117.016C60.0815 119.576 60.5935 121.816 61.6175 123.736C62.6842 125.613 64.1562 127.085 66.0335 128.152C67.9108 129.176 70.1082 129.688 72.6255 129.688C74.5455 129.688 76.3162 129.347 77.9375 128.664C79.6015 127.939 80.9882 126.872 82.0975 125.464L84.2735 127.576C82.9082 129.197 81.1802 130.477 79.0895 131.416C77.0415 132.312 74.8228 132.76 72.4335 132.76ZM106.164 132.76C103.348 132.76 100.831 132.077 98.612 130.712C96.3933 129.347 94.644 127.512 93.364 125.208C92.084 122.861 91.444 120.216 91.444 117.272C91.444 114.328 92.084 111.683 93.364 109.336C94.644 106.989 96.3933 105.133 98.612 103.768C100.831 102.403 103.348 101.72 106.164 101.72C108.34 101.72 110.345 102.147 112.18 103C114.057 103.853 115.636 105.091 116.916 106.712C118.196 108.291 119.007 110.168 119.348 112.344V122.072C118.964 124.205 118.153 126.083 116.916 127.704C115.679 129.283 114.121 130.52 112.244 131.416C110.409 132.312 108.383 132.76 106.164 132.76ZM106.74 129.688C109.001 129.688 110.985 129.155 112.692 128.088C114.399 127.021 115.721 125.571 116.66 123.736C117.641 121.859 118.132 119.704 118.132 117.272C118.132 114.797 117.641 112.643 116.66 110.808C115.679 108.931 114.313 107.459 112.564 106.392C110.857 105.325 108.852 104.792 106.548 104.792C104.287 104.792 102.26 105.325 100.468 106.392C98.7187 107.459 97.332 108.931 96.308 110.808C95.284 112.643 94.772 114.776 94.772 117.208C94.772 119.64 95.284 121.795 96.308 123.672C97.332 125.549 98.74 127.021 100.532 128.088C102.324 129.155 104.393 129.688 106.74 129.688ZM121.268 132.12H118.004V124.12L118.772 116.824L118.004 109.592V87.1921H121.268V132.12ZM130.927 132.12V102.36H134.127V132.12H130.927ZM132.527 95.4481C131.801 95.4481 131.183 95.1921 130.671 94.6801C130.201 94.1254 129.967 93.4854 129.967 92.7601C129.967 92.0348 130.201 91.4374 130.671 90.9681C131.183 90.4561 131.801 90.2001 132.527 90.2001C133.252 90.2001 133.871 90.4561 134.383 90.9681C134.895 91.4374 135.151 92.0348 135.151 92.7601C135.151 93.4854 134.895 94.1254 134.383 94.6801C133.871 95.1921 133.252 95.4481 132.527 95.4481ZM157.047 132.76C154.188 132.76 151.607 132.077 149.303 130.712C147.041 129.347 145.249 127.512 143.927 125.208C142.604 122.861 141.943 120.216 141.943 117.272C141.943 114.371 142.604 111.747 143.927 109.4C145.249 107.053 147.041 105.197 149.303 103.832C151.564 102.424 154.103 101.72 156.919 101.72C159.223 101.72 161.271 102.168 163.063 103.064C164.897 103.917 166.391 105.133 167.543 106.712C168.737 108.291 169.505 110.168 169.847 112.344V122.072C169.463 124.248 168.673 126.147 167.479 127.768C166.327 129.347 164.855 130.584 163.063 131.48C161.313 132.333 159.308 132.76 157.047 132.76ZM157.495 129.688C160.908 129.688 163.617 128.557 165.623 126.296C167.671 123.992 168.695 120.984 168.695 117.272C168.695 114.755 168.225 112.579 167.287 110.744C166.391 108.867 165.089 107.416 163.383 106.392C161.676 105.325 159.692 104.792 157.431 104.792C155.084 104.792 152.993 105.325 151.159 106.392C149.367 107.459 147.937 108.931 146.871 110.808C145.847 112.685 145.335 114.819 145.335 117.208C145.335 119.64 145.847 121.795 146.871 123.672C147.937 125.549 149.388 127.021 151.223 128.088C153.057 129.155 155.148 129.688 157.495 129.688ZM168.567 132.12V124.12L169.271 116.824L168.567 109.592V102.36H171.831V132.12H168.567Z" fill="white"/>
</svg>
