<?xml version="1.0" encoding="UTF-8"?>
<svg id="Ebene_2" data-name="Ebene 2" xmlns="http://www.w3.org/2000/svg" viewBox="0 0 189.09 255.13">
  <defs>
    <style>
      .cls-1 {
        fill: #4b4b4d;
      }

      .cls-2, .cls-3 {
        fill: #6aaf18;
      }

      .cls-4 {
        fill: #f6f6f6;
      }

      .cls-5, .cls-6 {
        fill: #fff;
      }

      .cls-6 {
        stroke: #272728;
        stroke-miterlimit: 10;
        stroke-width: 3px;
      }

      .cls-7 {
        fill: #2e2d30;
      }

      .cls-3 {
        font-family: ArialRoundedMTBold, 'Arial Rounded MT Bold';
        font-size: 41.44px;
      }

      .cls-8 {
        fill: #272728;
      }

      .cls-9 {
        fill: #87888a;
      }

      .cls-10 {
        fill: #f18f00;
      }
    </style>
  </defs>
  <g id="Ebene_1-2" data-name="Ebene 1">
    <path class="cls-5" d="M166.89,170.5c0,45.34-36.75,82.1-82.09,82.11-45.34,0-82.1-36.75-82.11-82.09,0-45.34,36.75-82.1,82.09-82.11h.02c45.34,0,82.09,36.75,82.09,82.09"/>
    <path class="cls-2" d="M2.26,181.38s66.54,80.63,161.74,9.77c0,0,11.6-81.19-60.43-98.89l-45.15-1.25-12.82,6.74S-5.06,125.83,2.26,181.38"/>
    <path class="cls-5" d="M47.25,134.76s-22.33,20.94-19.16,51.94c.85-2.57-7.23,24.94-23.22,6.27,0,0-9.55-46.57,18.84-75"/>
    <path class="cls-8" d="M15.63,201.18c-3.27,0-7.37-1.67-12-7.12l-.29-.32-.08-.43c-.1-.47-9.41-47.79,19.29-76.5l2.38,2.38C-1.07,145.19,5.63,187.54,6.47,192.19c3.78,4.29,7.28,6.14,10.43,5.48,5.07-1.07,8.59-8.57,9.52-11.17-3-31.28,18.78-52.12,19.71-53l2.27,2.51c-.22.2-21.2,20.31-18.73,49.55l.13.66c.02.31-.02.63-.11.93h0c-.71,2.82-4.31,10.4-9.78,13.05-1.33.65-2.79.99-4.27,1"/>
    <path class="cls-2" d="M40.17,146.87s-15.45-23.41-21.21-22c-5.13,1.25-1.78-3.58-1.78-3.58l13.67-15.86,17.81,18.38-.83,16.84-7.66,6.22Z"/>
    <path class="cls-8" d="M38.8,150.69l-1.16-2.16c-3.2-5.89-12.84-21.37-19-22.29-.87-.16-1.76.14-2.35.8l-2.37-2.39c1.34-1.4,3.29-2.05,5.21-1.73,7.6,1.12,16.9,16,20.29,21.89l10.24-12.05,2.56,2.18-13.42,15.75Z"/>
    <polygon class="cls-6" points="91.61 112.7 98.61 96.11 73.9 96.83 79.72 110.05 80.61 112.09 69.91 177.52 87.22 198.11 104.42 177.41 91.61 112.7"/>
    <path class="cls-5" d="M141,132.3s-.8,33.69-27.4,50.26c0,0-15.43,20.07,12.48,22.68,0,0,33.27-9,38.47-54.33"/>
    <path class="cls-8" d="M110.73,201.33c-.91-.91-1.63-1.98-2.15-3.16-3.24-7.45,3.43-16.26,3.72-16.64l.18-.24.26-.16c25.49-15.88,24.91-34.66,24.92-35l3.36.08c0,1.41.56,20.68-26.23,37.59-.93,1.31-5.34,7.95-3.12,13,1.59,3.64,6.36,4.81,14.16,5.6,4.06-1.9,33.14-10.34,37.89-51.79l3.34.38c-5.25,45.75-39.87,54.5-40.29,54.68l-.39.16h-.42c-7.16-.67-12.26-1.45-15.23-4.49"/>
    <path class="cls-10" d="M136.31,145.52c4.86-.66,23.8-3.54,28.34,2.71,5.19,7.11-16.63-24.64-16.63-24.64l-12.55,11.25.84,10.68Z"/>
    <path class="cls-7" d="M134.49,149.12l1.62-11.27,3.35.37-1.13,6.7c5.38-.89,18.93-2.47,27.75,2.36,2.38,1.31.76,4.42-.76,3.45-9.51-6.11-28.33-2.15-28.55-2.1l-2.28.49Z"/>
    <path class="cls-8" d="M84.63,255.13C37.89,255.13,0,217.24,0,170.5s37.89-84.63,84.63-84.63,84.63,37.89,84.63,84.63c-.06,46.72-37.91,84.57-84.63,84.63M84.63,90.92c-43.95,0-79.58,35.64-79.57,79.59,0,43.95,35.64,79.58,79.59,79.57,43.95,0,79.57-35.63,79.57-79.58-.06-43.93-35.66-79.53-79.59-79.58"/>
    <path class="cls-5" d="M131.6,49.54c0,25.96-21.04,47-47,47s-47-21.04-47-47S58.64,2.54,84.6,2.54s47,21.04,47,47"/>
    <path class="cls-8" d="M84.59,99.06c-27.35,0-49.53-22.18-49.53-49.53S57.24,0,84.59,0s49.53,22.18,49.53,49.53h0c-.03,27.35-22.19,49.5-49.53,49.53M84.59,5.06c-24.57,0-44.49,19.92-44.49,44.49s19.92,44.49,44.49,44.49,44.49-19.92,44.49-44.49c0-24.58-19.91-44.51-44.49-44.54"/>
    <path class="cls-5" d="M122.72,48.64c0,18.71-14.63,33.88-32.66,33.88s-32.67-15.17-32.67-33.88,14.61-33.89,32.67-33.89,32.66,15.17,32.66,33.89"/>
    <path class="cls-8" d="M72.83,42.22c-2.86,0-5.18,2.31-5.19,5.17,0,2.86,2.31,5.18,5.17,5.19,2.86,0,5.18-2.31,5.19-5.17,0,0,0-.01,0-.02,0-2.85-2.32-5.16-5.17-5.17"/>
    <path class="cls-8" d="M96.36,42.26c-2.86,0-5.17,2.31-5.17,5.17,0,2.86,2.31,5.17,5.17,5.17s5.17-2.31,5.17-5.17h0c0-2.85-2.32-5.16-5.17-5.17"/>
    <rect class="cls-1" x="104.69" y="167.88" width="65.08" height="5.66"/>
    <rect class="cls-4" x="99.92" y="114.02" width="75.08" height="50.4"/>
    <path class="cls-1" d="M171.26,110.23h-68.14c-4.01,0-7.26,3.25-7.26,7.26h0v44.35c0,4.01,3.25,7.26,7.26,7.26h68.14c4.01,0,7.26-3.25,7.26-7.26v-44.35c0-4.01-3.25-7.26-7.26-7.26h0ZM170.55,161.13h-66.72v-42.94h66.73v42.94Z"/>
    <path class="cls-1" d="M187,184.01l-8.68-8.68c-2.25-2.09-5.14-3.35-8.2-3.57h-65.83c-3.06.22-5.96,1.48-8.21,3.57l-8.68,8.68c-1.32,1.54-2.08,3.48-2.14,5.5-.13,1.67,1.08,3.14,2.74,3.34h98.3c1.69-.17,2.93-1.67,2.78-3.36-.05-2.01-.79-3.94-2.08-5.48Z"/>
    <path class="cls-9" d="M147,185.56h-19.58c-.31,0-.56-.47-.56-1.05,0-.61.15-1.2.43-1.74l1.71-2.76c.36-.59.96-1,1.64-1.12h13.08c.68.11,1.28.52,1.64,1.12l1.72,2.73c.28.54.43,1.13.43,1.74.01.61-.24,1.08-.51,1.08Z"/>
    <text class="cls-3" transform="translate(123.59 155.65)"><tspan x="0" y="0">4</tspan></text>
  </g>
</svg>