<?xml version="1.0" encoding="UTF-8"?>
<svg id="Ebene_2" data-name="Ebene 2" xmlns="http://www.w3.org/2000/svg" viewBox="0 0 323 298.25">
  <defs>
    <style>
      .cls-1 {
        fill: #4b4b4d;
      }

      .cls-2 {
        fill: #ec7404;
      }

      .cls-3, .cls-4, .cls-5 {
        fill: #fff;
      }

      .cls-6, .cls-4 {
        stroke-width: 2.71px;
      }

      .cls-6, .cls-4, .cls-5 {
        stroke: #272728;
      }

      .cls-6, .cls-7 {
        fill: #ee7203;
      }

      .cls-8 {
        fill: #2e2d30;
      }

      .cls-9 {
        fill: #e3e4e4;
      }

      .cls-10 {
        fill: #272728;
      }

      .cls-5 {
        stroke-miterlimit: 10;
        stroke-width: 4px;
      }

      .cls-11 {
        fill: #b1b3b4;
      }

      .cls-12 {
        fill: #58585a;
      }
    </style>
  </defs>
  <g id="Ebene_1-2" data-name="Ebene 1">
    <path class="cls-9" d="M0,261.72c0,20.18,72.31,36.53,161.51,36.53s161.49-16.35,161.49-36.53-72.32-36.54-161.52-36.54S0,241.53,0,261.72Z"/>
    <path class="cls-1" d="M272.08,270.17c.56,3.08,2.9,4.64,5.24,3.48l6.05-3c2.33-1.16,3.78-4.59,3.22-7.68l-17.7-97.68c-.56-3.08-2.9-4.64-5.24-3.48l-6,3c-2.33,1.16-3.78,4.6-3.22,7.68l17.65,97.68Z"/>
    <path class="cls-1" d="M166.11,247.91c-.56,3.09-2.9,4.64-5.24,3.48l-6.05-3c-2.33-1.16-3.77-4.6-3.22-7.68l17.7-97.71c.56-3.09,2.91-4.64,5.24-3.49l6.05,3c2.33,1.16,3.78,4.6,3.22,7.68l-17.7,97.72Z"/>
    <path class="cls-12" d="M292.57,65s-6.14,111.69-8.44,115.12-66.68-5.12-66.68-5.12c0,0,26.83-4.3,46.76-34.37s28.36-75.63,28.36-75.63Z"/>
    <polygon class="cls-1" points="309.1 0 291.49 200.76 140.36 187.28 162.13 8.6 309.1 0"/>
    <path class="cls-3" d="M277.79,180.92h-.23l-122.87-10.92c-1.46-.12-2.54-1.41-2.41-2.87,0-.04,0-.09.01-.13l17.35-141.84c.16-1.3,1.23-2.29,2.54-2.34l119.59-4.36c1.47,0,2.66,1.19,2.66,2.66,0,.08,0,.15,0,.23l-14,157.15c-.11,1.38-1.27,2.43-2.65,2.42h.02Z"/>
    <path class="cls-3" d="M291.77,21.12l-14,157.15-122.87-11,17.38-141.79,119.49-4.36M291.77,15.8h-.19l-119.49,4.37c-2.61.09-4.77,2.07-5.09,4.66l-17.35,141.83c-.18,1.43.23,2.88,1.14,4,.91,1.11,2.23,1.82,3.66,1.95l122.87,11h.47c1.25,0,2.46-.44,3.41-1.24,1.08-.9,1.76-2.2,1.89-3.6l14-157.15c.27-2.92-1.89-5.5-4.81-5.77-.16-.01-.32-.02-.48-.02l-.03-.03Z"/>
    <polygon class="cls-3" points="151.49 175.55 169.98 20.54 298.48 14.09 283.4 187.51 151.49 175.55"/>
    <path class="cls-11" d="M294.75,17.69l-14.44,166.12-125-11.33,17.69-148.68,121.73-6.11M302.19,10.5l-7.8.39-121.71,6.11-5.74.29-.68,5.7-17.74,148.68-.83,7,7,.63,125,11.33,6.81.62.6-6.81,14.43-166.16.68-7.78h-.02Z"/>
    <polygon class="cls-3" points="149.11 173.7 167.63 17.78 295.27 13.02 280.34 185.65 149.11 173.7"/>
    <path class="cls-3" d="M293.63,14.58l-14.63,169.42-128.22-11.65,18.22-153.12,124.66-4.65M296.95,11.46l-3.4.12-124.69,4.65-2.57.1-.3,2.54-18.19,153.13-.36,3.07,3.07.28,128.19,11.65,3,.27.26-3,14.66-169.43.3-3.38h.03Z"/>
    <path class="cls-8" d="M42.27,139.06l-.35-2.41,24.68-1.17-1.34,10.12-3,11.59-2.31,12.24-13.2.64-4.47-31h0ZM50.54,165.46l5.7-.27,1.69-9,3-11.46.61-4.62-14.54.72,3.55,24.63h0Z"/>
    <path class="cls-4" d="M137.38,167.52l.43.25c3.11,1.78,22.47,12.27,37.47,6,0,0,24.17-14.88-.5-29.05l-6.21-.2-19.4-.15-11.79,23.15Z"/>
    <polygon class="cls-6" points="153.04 143.74 138.41 169.18 129.79 165.25 131.84 154.73 133.33 142.83 135.16 135.62 153.04 143.74"/>
    <path class="cls-3" d="M160.66,189.32c0,39.52-32.03,71.56-71.55,71.57-39.52,0-71.56-32.03-71.57-71.55,0-39.52,32.03-71.56,71.55-71.57h0c39.52,0,71.55,32.03,71.56,71.55"/>
    <path class="cls-1" d="M16.07,189.33c0-40.32,32.68-73,73-73h0c40.32,0,73,32.68,73,73h0c0,40.32-32.68,73-73,73h0c-40.32,0-73-32.68-73-73h0ZM19.02,189.33c.05,38.68,31.39,70.02,70.07,70.07h0c38.68-.05,70.03-31.39,70.09-70.07h0c-.05-38.69-31.4-70.04-70.09-70.09h0c-38.69.04-70.05,31.4-70.09,70.09h.02Z"/>
    <path class="cls-7" d="M17.39,198.15s55.24,71.1,138.24,9.38c0,0,11.29-71.56-51.5-87l-39.37.4-11.17,5.87s-42.59,22.93-36.2,71.35"/>
    <path class="cls-7" d="M88.66,235.66c-46-.1-73.36-35.48-73.59-35.71h0l2.32-1.8,2.93-.4-2.93.4-2.32,1.85-.49-.63-.11-.79c-.45-3.36-.67-6.76-.68-10.15h0c.15-43.69,38.16-64,38.43-64.19h0l11.78-6.24,40.45-.41.36.09c23.9,5.83,37.82,19.84,45.39,35h0c7.6,15.13,9.13,31.31,9.14,42.21h0c.03,4.39-.24,8.77-.82,13.12h0l-.2,1.19-1,.72c-25.51,19-48.75,25.76-68.68,25.76h0l.02-.02ZM24.37,201.47c4.22,4.24,8.8,8.1,13.7,11.53h0c11.94,8.41,29.17,16.76,50.59,16.76h0c18.34,0,39.9-6.08,64.2-23.87h0c.42-3.65.62-7.32.61-11h0c0-10.35-1.52-25.68-8.52-39.57h0c-7-13.8-19.13-26.26-41.19-31.81h0l-38.26.39-10.5,5.49s-.48.26-1.43.85h0c-1,.59-2.33,1.49-4,2.69h0c-4.43,3.25-8.52,6.93-12.21,11h0c-8.89,9.83-17.66,24.5-17.67,44.46h0c0,2.86.18,5.72.53,8.56h0c.68.81,2.06,2.41,4.16,4.53h-.01Z"/>
    <path class="cls-3" d="M55.58,160.13s-19.38,19.87-13.83,45.08c0,0-2.94,20.65-20.55,5.71,0,0-13.06-33.72,10.63-62.88"/>
    <path class="cls-10" d="M32.36,217.73c1.06,0,2.11-.18,3.1-.55,6.26-2.38,7.61-11.39,7.66-11.77v-.25l-.06-.25c-5.32-24.16,13.28-43.63,13.47-43.82l-2-1.93c-.8.83-19.7,20.57-14.24,46.09-.23,1.3-1.6,7.72-5.87,9.34-3.06,1.15-7.13-.35-12.09-4.49-1.22-3.49-11.15-34.51,10.53-61.18l-2.15-1.75c-23.93,29.44-11,63.9-10.85,64.25l.13.33.26.22c4.52,3.84,8.56,5.76,12.06,5.76"/>
    <path class="cls-7" d="M50.52,170.52c-2.42-3.24-15.44-16.38-21.74-15.45-7.17,1,4.72-11.95,4.72-11.95l17.92-14.72,5.27,22.6.59,13.87-6.76,5.65Z"/>
    <path class="cls-10" d="M49.44,173.67l11.29-13.67-2.14-1.76-8.89,10.76c-3.27-4.67-13.48-17.76-24-15.28l.63,2.69c10.54-2.51,21.97,15.45,22.09,15.59l1.02,1.67Z"/>
    <path class="cls-10" d="M13.83,188.73c.02-40.73,33.04-73.74,73.77-73.73h0c40.74,0,73.76,33.02,73.77,73.76h0c-.02,40.73-33.04,73.73-73.77,73.73h0c-40.74,0-73.76-33.01-73.77-73.75,0,0,0,0,0,0h0ZM18.25,189.04c1.76,38.33,31.05,69,69.35,69h0c38.28-.02,69.33-31.03,69.4-69.31h0c-.05-38.3-31.1-69.33-69.4-69.35h0c-38.28.05-69.3,31.07-69.35,69.35v.31Z"/>
    <path class="cls-3" d="M129.14,86.49c0,22.64-18.36,41-41,41s-41-18.36-41-41,18.36-41,41-41,41,18.36,41,41h0"/>
    <polygon class="cls-5" points="105.35 139.31 107.62 123.13 85.01 128.97 93.67 139.79 95.01 141.46 101.26 204.77 122.4 219.57 133.23 196.13 105.35 139.31"/>
    <path class="cls-10" d="M45,86.49c0-23.84,19.33-43.17,43.17-43.18h0c23.84.01,43.17,19.34,43.18,43.18h0c0,23.84-19.33,43.17-43.17,43.17h-.01c-23.84,0-43.17-19.33-43.17-43.17h0ZM49.41,86.49c.04,21.39,17.37,38.72,38.76,38.76h0c21.4-.03,38.73-17.36,38.76-38.76h0c-.03-21.4-17.36-38.73-38.76-38.76h0c-21.39.04-38.72,17.37-38.76,38.76Z"/>
    <path class="cls-3" d="M124.22,80.6c0,16.31-12.74,29.53-28.47,29.53s-28.46-13.22-28.46-29.53,12.71-29.53,28.46-29.53,28.47,13.22,28.47,29.53"/>
    <path class="cls-10" d="M97.32,83.75c0,2.35-1.91,4.26-4.26,4.26-2.35,0-4.26-1.91-4.26-4.26,0-2.35,1.91-4.26,4.26-4.26,0,0,0,0,0,0,2.35,0,4.25,1.9,4.25,4.25,0,0,0,0,0,.01"/>
    <path class="cls-10" d="M116.67,83.76c0,2.36-1.91,4.27-4.27,4.27s-4.27-1.91-4.27-4.27c0-2.36,1.91-4.27,4.27-4.27,0,0,.01,0,.02,0,2.35,0,4.25,1.9,4.25,4.25,0,0,0,.01,0,.02"/>
    <path class="cls-2" d="M200.72,73.62c12.71-4.11,22.43-13.05,30.68-23.25l-10-5.84c-4.4,21.99-7.6,44.2-9.58,66.53-.64,7.7,11.37,7.65,12,0,1.91-21.26,4.97-42.41,9.18-63.34,1-5.25-5.91-10.94-10-5.84-6.87,8.49-14.74,16.73-25.39,20.17-7.32,2.36-4.19,14,3.19,11.57h-.08Z"/>
    <g>
      <path class="cls-2" d="M191,139.41c0-.58-5.8-10.06-6.31-10.34l-.79.44c-1.61.93-47.29,32.66-49.59,34.42-.49.44-.88.98-1.15,1.59-.21.46-.26.98-.16,1.48.08.43.32.81.66,1.08.4.29.87.47,1.36.5.66.03,1.33-.07,1.95-.3,2.62-1.24,5.2-2.48,7.74-3.71,2.55-1.23,44-23.62,45.56-24.63l.41-.26.35-.23"/>
      <path class="cls-1" d="M137.18,168.8c-.62.24-1.27.36-1.93.37h-.32c-.62-.04-1.22-.26-1.71-.64h0c-.46-.36-.77-.87-.88-1.44h0c-.03-.17-.05-.35-.05-.53h0c0-.44.1-.87.27-1.27h0c.3-.68.75-1.3,1.3-1.8h0c2.42-1.85,48-33.51,49.71-34.5h0l.79-.45.3-.18.31.17h0c.25.18.46.41.62.68h0c.75,1,2.22,3.37,3.51,5.53h0c.65,1.08,1.25,2.1,1.7,2.9h0c.22.4.4.74.54,1h0c.14.23.22.49.26.75v.34l-.29.2-.34-.52h0l.34.52h0l-.35.23h0l-.41.26h0c-1.66,1.07-43,23.41-45.63,24.67h0c-2.54,1.23-5.12,2.46-7.75,3.71h.01ZM189.88,139.38l.33-.21h0c-.44-.87-1.67-3-2.87-4.95h0c-.73-1.2-1.47-2.37-2.05-3.25h0c-.29-.44-.54-.81-.73-1.07h0l-.34.2h0c-1.5.85-47.29,32.65-49.52,34.36h0c-.43.37-.77.83-1,1.34h0c-.11.25-.17.52-.17.79h0v.3h0c.06.28.21.53.44.7h0c.29.22.64.35,1,.37h.23c.5,0,.99-.1,1.46-.27h0c2.56-1.22,5.14-2.45,7.68-3.68h0c2.48-1.19,44-23.64,45.49-24.59l.05-.04Z"/>
      <path class="cls-1" d="M222.31,111c0,.11.05.27.07.48s.06.46.08.74.06.61.07,1,0,.73,0,1.14v1.28c0,.44-.06.91-.11,1.38s-.12.94-.21,1.42c-.21,1.27-.62,2.51-1.21,3.66-.45.84-1.04,1.6-1.74,2.24-.36.33-.76.62-1.17.88-1.37.81-2.92,1.27-4.51,1.34-1.29.07-2.59-.03-3.85-.3-.55-.1-1.1-.25-1.63-.43.09-.24.14-.49.14-.75,0-.3-.03-.59-.1-.88-.08-.32-.18-.64-.31-.94-.14-.32-.3-.62-.48-.92-.18-.3-.38-.58-.6-.84-.21-.26-.44-.49-.69-.71-.22-.19-.47-.35-.73-.49-.23-.12-.48-.19-.74-.21.18-.95.44-1.88.8-2.78.63-1.77,1.76-3.32,3.24-4.47,1.23-.84,2.72-1.2,4.2-1,.67.06,1.3.11,1.89.13,1.77.1,3.55,0,5.29-.32.81-.12,1.59-.38,2.32-.75v.16"/>
      <path class="cls-3" d="M183.56,129.73c1.39-.78,2.76-1.54,4.12-2.26l.59-.32,1.7-.88.61-.31c4.51-2.32,9.19-4.28,14-5.88,1.93.15,4.26,4,3.51,5.75-3.62,3.54-7.51,6.8-11.63,9.73l-.55.4-1.57,1.11-.55.38c-1.26.88-2.56,1.75-3.9,2.62-.09-2.9-3.76-8.93-6.3-10.34"/>
      <path class="cls-1" d="M190.2,140.59l-.92.61v-1.11h0c0-2.51-3.75-8.67-6-9.81l-1-.54,1-.55.31.54-.31-.54h0c1.4-.79,2.77-1.55,4.13-2.27h0l.6-.32h0l1.7-.88h0l.62-.31h0c4.53-2.33,9.23-4.31,14.06-5.92h.24c1.21.25,2.27,1,2.91,2.06h0c.78,1.01,1.23,2.24,1.31,3.51h0c0,.34-.06.68-.19,1v.11l-.08.09h0c-3.64,3.57-7.56,6.85-11.71,9.8h0l-.54.39h0c-.52.38-1.05.75-1.58,1.12h0l-.56.39h0c-1.26.87-2.56,1.75-3.91,2.62h-.08ZM196.05,135.06c4.07-2.89,7.9-6.09,11.47-9.58h0c.04-.15.06-.3.06-.45h0c-.09-1.01-.46-1.98-1.08-2.79h0c-.44-.7-1.1-1.24-1.88-1.52h0c-4.73,1.57-9.33,3.51-13.76,5.8h0l-.61.31h0l-1.69.87h0l-.56.3h0c-1.07.57-2.16,1.16-3.25,1.77h0c2.69,2.5,4.64,5.69,5.62,9.23h0c1-.69,2.07-1.39,3.07-2.08h0c.19-.13.37-.25.54-.38h0l1.57-1.1h0l.53-.4-.03.02Z"/>
    </g>
  </g>
</svg>