<svg width="123" height="182" viewBox="0 0 123 182" fill="none" xmlns="http://www.w3.org/2000/svg">
<g clip-path="url(#clip0_803_439)">
<path d="M50.8273 39.3453C52.9318 39.3453 54.625 37.6388 54.625 35.553C54.625 33.4672 52.916 31.7449 50.8273 31.7449C48.7385 31.7449 47.0137 33.4514 47.0137 35.553C47.0137 37.6546 48.7227 39.3453 50.8273 39.3453Z" fill="#202022"/>
<path d="M67.79 39.3771C69.8945 39.3771 71.6035 37.6705 71.6035 35.5689C71.6035 33.4674 69.8945 31.7766 67.79 31.7766C65.6854 31.7766 63.9922 33.4832 63.9922 35.5689C63.9922 37.6547 65.7012 39.3771 67.79 39.3771Z" fill="#202022"/>
<path d="M85.1173 63.9007C93.0926 57.2641 98.1721 47.2777 98.1721 36.1377C98.1721 16.2122 81.9209 0 61.9668 0C42.0127 0 25.7773 16.2122 25.7773 36.1377C25.7773 47.1354 30.7302 57.0113 38.5315 63.6479C15.9664 72.7494 0 94.8397 0 120.596C0 154.458 27.5971 182 61.5079 182C95.4188 182 123 154.458 123 120.596C123 95.0768 107.334 73.1603 85.1173 63.9007ZM30.3821 36.1377C30.3821 18.7404 44.5446 4.59819 61.9668 4.59819C79.389 4.59819 93.5515 18.7404 93.5515 36.1377C93.5515 46.851 88.1555 56.316 79.9587 62.0203C78.1389 63.2844 76.1926 64.3747 74.1355 65.228C70.3852 66.7923 66.2709 67.6772 61.9668 67.6772C57.6627 67.6772 53.3111 66.7449 49.4817 65.1016C47.4404 64.2167 45.5098 63.1106 43.7059 61.8307C35.6673 56.1106 30.3821 46.7404 30.3821 36.1535V36.1377ZM68.6604 71.6433L64.9575 81.219L74.1513 127.549L63.3593 140.521L52.4882 127.596L60.1629 80.7291L56.2385 71.8172C58.1058 72.1174 60.0205 72.2754 61.9826 72.2754C64.2771 72.2754 66.5083 72.0542 68.692 71.6433H68.6604ZM42.978 66.8871C45.9371 68.7043 49.1652 70.1264 52.599 71.0429L57.0455 81.1242L49.2918 128.465L63.3593 145.183L77.3636 128.354L68.0749 81.5192L72.5847 70.6795C75.4172 69.8104 78.0915 68.5937 80.5758 67.1084C92.6021 71.4063 102.777 79.623 109.518 90.2257C102.998 91.6637 97.1277 98.4898 94.3269 102.282C93.9155 102.835 93.5515 103.341 93.2825 103.752L92.7129 103.056L85.2439 93.9865L83.8514 95.14L93.4566 106.786L94.1212 105.727C94.1212 105.727 94.1845 105.648 94.2161 105.585C98.1563 112.648 101.907 123.029 99.3273 134.691L99.2956 134.849L99.3273 135.023C99.3273 135.023 99.3273 135.086 99.3273 135.133C99.3273 135.165 99.3273 135.196 99.3273 135.244C99.3273 135.275 99.3273 135.323 99.3273 135.354C99.3273 135.418 99.3589 135.497 99.3748 135.576V135.655C99.6596 137.108 100.609 140.727 102.951 143.144C79.0726 160.526 44.592 159.151 16.7101 139.731C16.8367 139.605 16.9475 139.479 17.0583 139.336C17.2798 139.084 17.5014 138.831 17.7229 138.578C17.8653 138.404 17.9919 138.23 18.1343 138.041C18.3084 137.804 18.4666 137.567 18.6249 137.33C18.7356 137.156 18.8622 136.982 18.9572 136.808C19.1629 136.476 19.3528 136.144 19.5426 135.813C19.6218 135.655 19.7009 135.497 19.78 135.354C19.9224 135.07 20.0648 134.786 20.1914 134.517C20.2547 134.375 20.3022 134.248 20.3655 134.122C20.4604 133.885 20.5554 133.664 20.6345 133.458C20.6662 133.363 20.7136 133.269 20.7453 133.174C20.8402 132.889 20.9352 132.637 20.9826 132.447C21.0459 132.194 21.0776 132.02 21.0618 131.926L20.9668 131.436C20.0174 120.154 23.8626 110.799 27.7078 104.431C27.7395 104.479 27.787 104.542 27.8028 104.605L28.4199 105.758L37.7877 94.7607L36.411 93.5914L29.2586 101.998L28.7522 102.598C28.499 102.156 28.1667 101.587 27.8028 100.971C25.2235 96.6727 20.1123 88.9774 15.5233 87.0497C22.3118 77.8059 31.8537 70.6953 42.8989 66.8713H42.9305L42.978 66.8871ZM7.86453 139.479C5.77576 133.569 4.62061 127.217 4.62061 120.596C4.62061 108.729 8.29178 97.6998 14.5423 88.5824C14.7796 88.6614 15.0328 88.772 15.286 88.8984H15.3018C15.555 89.0248 15.8082 89.167 16.0614 89.3409H16.093C16.3462 89.5147 16.5994 89.6885 16.8684 89.8939C16.8842 89.8939 16.9 89.9255 16.9159 89.9255C17.169 90.1309 17.4381 90.3521 17.6912 90.5892C17.7071 90.5892 17.7229 90.6208 17.7545 90.6366C18.0077 90.8736 18.2767 91.1264 18.5299 91.3792C18.5457 91.3792 18.5774 91.4266 18.5932 91.4424C18.8464 91.6953 19.1154 91.9797 19.3686 92.2483C19.4002 92.2799 19.4161 92.3115 19.4477 92.3431C19.7009 92.6275 19.9541 92.912 20.2073 93.2122C20.2389 93.2438 20.2706 93.2912 20.3022 93.3228C20.5554 93.623 20.7927 93.9233 21.0459 94.2235C21.0776 94.2709 21.125 94.3183 21.1567 94.3657C21.3941 94.6659 21.6314 94.9661 21.8688 95.2822C21.9162 95.3454 21.9637 95.4086 22.0112 95.456C22.2327 95.7562 22.4543 96.0564 22.6758 96.3567C22.7391 96.4357 22.7866 96.5147 22.8499 96.5937C23.0556 96.8781 23.2613 97.1625 23.4512 97.447C23.5145 97.5418 23.5936 97.6524 23.6569 97.7472C23.8468 98.0158 24.0208 98.2844 24.1949 98.5372C24.274 98.6479 24.3531 98.7743 24.4164 98.8849C24.5747 99.1377 24.7487 99.3905 24.907 99.6275C24.9861 99.754 25.0652 99.8804 25.1602 100.023C25.3026 100.244 25.445 100.465 25.5716 100.686C25.6824 100.876 25.7931 101.05 25.9197 101.239C26.0147 101.397 26.1096 101.555 26.2046 101.698C26.4103 102.029 26.6002 102.345 26.7742 102.646C22.5492 109.361 18.0868 119.664 19.3211 132.147C18.6723 133.995 16.0772 139.621 12.2161 140.442C11.8838 140.506 11.5515 140.537 11.2192 140.537H11.0135C10.7287 140.537 10.4438 140.49 10.1432 140.427C10.0957 140.427 10.0482 140.395 10.0008 140.395C9.68429 140.316 9.35199 140.205 9.03551 140.079C9.01968 140.079 8.98804 140.063 8.97221 140.047C8.60826 139.889 8.24431 139.7 7.88035 139.479H7.86453ZM61.5079 177.386C37.7086 177.386 17.2798 162.707 8.81397 141.944C9.621 142.228 10.4122 142.386 11.2034 142.386C12.2161 142.386 13.213 142.149 14.1941 141.675C14.6847 141.438 15.1436 141.138 15.6025 140.806C30.7935 151.488 47.9626 156.876 64.3721 156.876C78.8668 156.876 92.8078 152.673 104.296 144.187C104.533 144.345 104.771 144.503 105.024 144.646C105.293 144.788 105.562 144.93 105.863 145.041C106.685 145.357 107.556 145.515 108.458 145.515C109.914 145.515 111.48 145.12 113.157 144.33C104.138 163.828 84.3736 177.386 61.4921 177.386H61.5079ZM106.496 143.366C102.54 141.88 101.337 135.939 101.147 134.912C103.853 122.381 99.6121 111.273 95.3713 103.957C97.9189 100.433 104.106 92.8488 110.562 91.8849C115.531 100.323 118.395 110.12 118.395 120.596C118.395 128.038 116.939 135.133 114.328 141.659C111.259 143.603 108.632 144.172 106.511 143.366H106.496Z" fill="#202022"/>
</g>
<defs>
<clipPath id="clip0_803_439">
<rect width="123" height="182" fill="white"/>
</clipPath>
</defs>
</svg>
